<?xml version="1.0" encoding="UTF-8"?>
<!DOCTYPE svg PUBLIC "-//W3C//DTD SVG 1.1//EN" "http://www.w3.org/Graphics/SVG/1.1/DTD/svg11.dtd">
<!-- Creator: CorelDRAW X7 -->
<svg xmlns="http://www.w3.org/2000/svg" xml:space="preserve" width="67.0278mm" height="19.05mm" version="1.1" style="shape-rendering:geometricPrecision; text-rendering:geometricPrecision; image-rendering:optimizeQuality; fill-rule:evenodd; clip-rule:evenodd"
viewBox="0 0 6703 1905"
 xmlns:xlink="http://www.w3.org/1999/xlink">
 <defs>
  <style type="text/css">
   <![CDATA[
    .fil1 {fill:#332C2B}
    .fil0 {fill:#D51C17}
    .fil2 {fill:#332C2B;fill-rule:nonzero}
   ]]>
  </style>
 </defs>
 <g id="图层_x0020_1">
  <metadata id="CorelCorpID_0Corel-Layer"/>
  <g id="_1146341728">
   <polygon class="fil0" points="586,54 1037,54 1201,424 1134,548 954,194 590,941 960,1682 1126,1331 1204,1455 1033,1831 583,1831 123,940 "/>
   <polygon class="fil0" points="1433,54 1950,53 1549,939 1948,1831 1432,1829 1005,939 "/>
   <polygon class="fil0" points="1931,200 1998,58 2479,943 2028,1831 1964,1686 2335,946 "/>
  </g>
  <g id="_913758192">
   <path class="fil1" d="M3339 988c0,-18 5,-24 23,-24l84 0c18,0 23,6 23,24l0 77c0,17 -5,23 -23,23l-84 0c-18,0 -23,-6 -23,-23l0 -77zm-331 -454c0,-18 5,-24 23,-24l54 0 0 539c0,18 -6,23 -23,23l-54 0 0 -538zm346 238l108 0 0 108 -108 0 0 -108zm0 -208l108 0 0 108 -108 0 0 -108zm43 -175l-89 -2c-46,0 -48,123 -116,139l0 -131 -292 0 0 793 200 0c50,0 92,-29 92,-77l0 -493 31 0c18,0 23,6 23,23l0 554 108 0 0 -23 323 0 0 -84 -92 0c-18,0 -23,-6 -23,-23l0 -77c0,-18 5,-24 23,-24l92 0 0 -84 -100 0 0 -108 77 0c18,0 23,-5 23,-23l0 -54c0,-18 -5,-23 -23,-23l-85 0 0 -108 85 0c18,0 23,-5 23,-23l0 -54c0,-17 -5,-23 -23,-23l-69 0 -25 -60 -67 -1c-28,0 -34,38 -39,61l-87 -1 30 -74z"/>
   <path class="fil1" d="M6193 434l-9 35 -14 11 -31 15 8 92c77,0 116,12 131,-53l62 0 0 92 -154 0c-18,0 -23,5 -23,23l0 492c0,18 5,24 23,24l84 0 0 -408c0,-18 6,-23 23,-23l23 0c18,0 24,5 24,23l0 431 107 0 0 -447 70 0 0 293c0,25 -16,29 -39,31l0 100 100 0c24,0 33,-19 39,-39l7 -23 0 -469 -107 0 -77 0 0 -100c0,0 29,0 61,0l116 0 0 -93 -301 0c-33,0 -17,-22 -15,-46l-100 0 -8 39z"/>
   <path class="fil1" d="M4501 888l-470 0c-18,0 -23,-6 -23,-24 0,-17 5,-23 23,-23l493 0 0 23c0,18 -6,24 -23,24zm-485 -147l500 0 0 39 -500 0 0 -39zm538 223c50,0 93,-28 93,-76l0 -224 -754 0 0 300 661 0z"/>
   <path class="fil1" d="M4447 557l-339 0c-31,0 -38,-38 -38,-70l423 0c-6,24 -18,70 -46,70zm-554 -70l92 0 0 47c0,17 -5,23 -23,23l-85 0 0 77 770 0c17,0 23,-6 23,-23l0 -54c-99,0 -100,0 -100,-23l0 -47 84 0 0 -69c0,0 -257,0 -300,0l-18 -29 -105 -2c-30,0 -23,31 -54,31l-284 0 0 69z"/>
   <path class="fil1" d="M5201 788l-8 15 -339 0 0 100 170 0 -31 77 -8 15 -44 93c-40,0 -94,-13 -94,23l0 54c0,17 5,23 23,23l131 0c42,0 68,-91 79,-129l13 -33 54 -115 500 -8 0 -15 0 -85 -300 0 -8 -15c-14,-10 -13,-16 -31,-16l-76 0c-18,0 -17,6 -31,16z"/>
   <path class="fil1" d="M5455 541c2,3 192,0 192,0l0 -77c0,-17 -5,-23 -23,-23l-162 0 0 -31c0,-17 -5,-23 -23,-23l-100 0 0 54 -154 0c-17,0 -23,6 -23,23l0 77 177 0 0 100 -177 0 0 77c0,18 6,23 23,23l447 0c17,0 23,-5 23,-23l0 -77 -200 0 0 -100z"/>
   <path class="fil1" d="M5862 1095c0,24 40,93 70,93l146 0 0 -100 -69 0c-18,0 -17,-6 -31,-16 0,-74 0,-149 0,-223 0,-43 17,-192 -23,-192l-93 0 0 438z"/>
   <path class="fil1" d="M5301 934c32,71 122,246 215,246l116 0c17,0 23,-5 23,-23l0 -69 -108 0c-25,0 -41,-26 -46,-47l61 0c57,0 77,-49 77,-107l-69 0c-30,0 -23,30 -54,30l-69 0c-34,0 -12,-30 -46,-30l-100 0z"/>
   <path class="fil1" d="M4454 1195c18,0 23,-5 23,-23l0 -67c0,0 -200,-2 -200,-2 -49,0 -82,15 -85,-30 -2,-36 16,-85 -22,-85l-70 0c-17,0 -23,5 -23,23l0 92c0,60 24,92 85,92l292 0z"/>
   <path class="fil1" d="M5870 503l-6 6 -2 17 -23 0 0 92c60,0 103,11 116,-38 2,-25 4,-54 31,-54l23 0c17,0 23,5 23,23l0 108 84 0 0 -208 -107 0c-18,0 -23,-5 -23,-23l0 -31 -93 0 -23 108z"/>
   <path class="fil1" d="M5024 741c0,18 5,23 23,23l69 0c18,0 23,-5 23,-23l0 -346 -115 0 0 346z"/>
   <path class="fil1" d="M5147 1149c0,18 20,39 38,39l154 0 0 -85 -77 0c-17,0 -23,-5 -23,-23l0 -139 -92 0 0 208z"/>
   <path class="fil1" d="M4939 764c71,0 71,-108 77,-177l-100 0 -19 94c-31,-1 -50,-6 -50,22l0 38c0,18 5,23 23,23l69 0z"/>
   <path class="fil1" d="M3877 1111l0 77 77 0c38,0 69,-32 69,-70l0 -115 -92 0 0 85c0,29 -25,23 -54,23z"/>
   <path class="fil1" d="M4477 1034c0,-18 -5,-23 -23,-23l-130 0 0 -23 -93 0 0 38c0,37 25,62 62,62l161 0c18,0 23,-6 23,-23l0 -31z"/>
   <path class="fil1" d="M4531 1018l0 116c0,25 34,46 62,46l69 0 0 -69c-28,-1 -46,-4 -46,-31l0 -85 -62 0c-17,0 -23,6 -23,23z"/>
   <path class="fil1" d="M4870 518c18,13 34,39 54,39l77 0 0 -70c0,-29 -41,-17 -47,-84l-94 0 10 115z"/>
   <path class="fil2" d="M3249 1380l-81 292 -44 0 -59 -211c-3,-9 -4,-19 -5,-30l0 0c-1,11 -3,21 -6,30l-59 211 -43 0 -85 -292 42 0 59 220c3,10 4,20 5,30l1 0c1,-7 3,-17 6,-30l63 -220 37 0 61 222c2,7 3,17 4,28l1 0c1,-8 3,-18 6,-29l57 -221 40 0zm273 292l-216 0 0 -292 209 0 0 33 -171 0 0 94 163 0 0 33 -163 0 0 98 178 0 0 34zm121 -260l0 0 0 228 0 0 0 32 -38 0 0 -32 0 0 0 -228 0 0 0 -32 38 0 0 32zm302 -32l-96 184 0 108 -38 0 0 -107 -94 -185 43 0 63 129c0,0 3,6 7,19l1 0c1,-5 4,-12 8,-19l66 -129 40 0zm117 32l0 0 0 228 0 0 0 32 -38 0 0 -32 0 0 0 -228 0 0 0 -32 38 0 0 32zm289 -21l-168 240 174 0 0 33 -229 0 0 -13 167 -238 -154 0 0 -33 210 0 0 11zm295 281l-38 0 0 -139 -148 0 0 139 -37 0 0 -297 37 0 0 125 148 0 0 -125 38 0 0 297zm309 -119c0,82 -37,123 -112,123 -72,0 -108,-39 -108,-119l0 -177 38 0 0 175c0,59 24,88 73,88 48,0 71,-28 71,-85l0 -178 38 0 0 173zm318 119l-42 0 -30 -80 -121 0 -28 80 -42 0 111 -292 41 0 111 292zm-83 -113l-44 -121c-2,-4 -3,-11 -5,-21l-1 0c-1,9 -3,16 -4,21l-44 121 98 0zm375 113l-45 0 -146 -227c-4,-7 -8,-13 -10,-19l-1 0c1,6 1,20 1,41l0 205 -37 0 0 -292 47 0 143 223c7,10 11,17 12,20l1 0c-2,-8 -2,-22 -2,-43l0 -200 37 0 0 292zm326 -20c-29,16 -62,24 -98,24 -42,0 -76,-13 -102,-39 -26,-27 -39,-63 -39,-107 0,-45 14,-82 43,-111 28,-29 65,-44 109,-44 32,0 59,5 80,15l0 41c-23,-15 -51,-22 -83,-22 -32,0 -58,11 -78,32 -21,22 -31,51 -31,86 0,37 9,65 28,85 19,21 45,31 77,31 22,0 41,-4 57,-13l0 -79 -64 0 0 -33 101 0 0 134zm84 -35c9,8 21,14 36,19 14,5 29,8 42,8 41,0 61,-15 61,-44 0,-8 -2,-16 -6,-22 -4,-7 -11,-12 -18,-18 -8,-5 -22,-12 -43,-23 -30,-14 -49,-28 -58,-40 -9,-13 -14,-27 -14,-43 0,-24 10,-44 29,-58 20,-14 44,-21 74,-21 29,0 50,4 64,11l0 41c-18,-13 -40,-19 -67,-19 -18,0 -32,4 -44,12 -11,7 -17,17 -17,31 0,12 4,21 12,29 8,7 25,17 51,30 28,14 48,27 60,41 11,14 17,29 17,46 0,26 -9,45 -28,59 -18,14 -44,20 -77,20 -12,0 -25,-1 -41,-4 -15,-3 -26,-7 -33,-12l0 -43zm519 55l-38 0 0 -138 -148 0 0 138 -37 0 0 -300 37 0 0 128 148 0 0 -128 38 0 0 300zm127 -260l0 0 0 228 0 0 0 32 -37 0 0 -32 0 0 0 -228 0 0 0 -32 37 0 0 32z"/>
  </g>
 </g>
</svg>
